<svg fill="black" data-name="Bad Egg Cup Menu Icon" xmlns="http://www.w3.org/2000/svg" viewBox="0 0 1451.34 1451.34">
  <path d="M413.75,1309.86c0-.41-.04-.78-.13-1.17-.08-.39-.2-.81-.36-1.31-.12-.41-.26-.87-.42-1.42s-.33-1.2-.51-1.97c-.05-.19-.09-.39-.14-.6-.1-.42-.19-.87-.29-1.36-.1-.49-.2-1.02-.31-1.59-.31-1.71-.64-3.79-.98-6.37-.11-.86-.22-1.77-.34-2.74-.17-1.46-.34-3.05-.5-4.79-.11-1.16-.22-2.38-.33-3.68-.27-3.23-.54-6.9-.78-11.07s-.48-8.83-.69-14.06c-.13-3.14-.25-6.48-.35-10.04-.47-15.43-.76-34.95-.74-59.73,0-3.81.01-7.75.03-11.81.09-20.7.75-40.75,2.03-61,.08-1.27.16-2.53.25-3.8.26-3.8.53-7.62.83-11.44.5-6.38,1.06-12.8,1.69-19.29.25-2.6.51-5.2.78-7.82.27-2.62.55-5.25.85-7.89.44-3.97.9-7.97,1.39-12,.33-2.69.66-5.4,1.01-8.13s.71-5.47,1.07-8.24c1.11-8.29,2.32-16.77,3.63-25.47.44-2.9.89-5.83,1.35-8.78.23-1.48.46-2.96.7-4.45.47-2.98.96-5.99,1.45-9.02,4.21-25.81,9.27-53.74,15.26-84.82.39-2.05.85-17.05,6.77-16.33,0-.03.01-.1.02-.19,0,0,0,0,0,0,0-.02,0-.05,0-.08,0-.03,0-.08.01-.12,0-.07.01-.13.02-.21,0-.02,0-.03,0-.05.02-.17.04-.37.06-.59,0,0,0-.01,0-.02,0,0,0,0,0,0,.56-6.06,2.66-32.18,4.95-46.42,0,0,0,0,0,0,0-.03,0-.05.01-.08.11-.65.21-1.28.32-1.87.01-.07.02-.14.04-.2,0,0,0,0,0,0,.08-.43.15-.83.23-1.23,0,0,0,0,0,0,.01-.08.03-.15.04-.23.11-.57.22-1.12.34-1.61,3.83-16.94,8.19-33.71,13.04-50.2,0,0,0,0,0,0,1.1-3.75,2.23-7.48,3.39-11.19,0-.02,0-.03.01-.05,1.15-3.7,2.32-7.38,3.52-11.04.01-.04.03-.08.04-.12,1.19-3.64,2.41-7.26,3.65-10.86.02-.06.04-.12.06-.19,1.24-3.58,2.49-7.15,3.78-10.69.03-.07.05-.15.08-.22,1.28-3.53,2.59-7.05,3.91-10.54.03-.08.06-.16.09-.24,1.33-3.49,2.68-6.96,4.06-10.41.03-.07.06-.14.08-.21,1.38-3.46,2.79-6.89,4.22-10.3.02-.05.04-.09.06-.14,1.44-3.44,2.91-6.85,4.4-10.23,0,0,0,0,0,0,23.32-53.02,52.37-99.39,86.12-133.36,0,0,0,0,0,0l.06-.06h0c4.2-4.23,8.48-8.27,12.82-12.1,0,0,0,0,0,0,.32-.28.64-.56.96-.84,1.97-1.71,3.94-3.39,5.94-5.02.76-.62,1.51-1.23,2.27-1.84,0,0,0,0,0,0,.39-.31.77-.61,1.16-.91h0c.44-.34.87-.68,1.31-1.02,1.1-.85,2.2-1.69,3.31-2.52.32-.24.63-.47.95-.71,0,0,0,0,0,0,1.44-1.06,2.88-2.11,4.33-3.12,77.29-54.08,273.46,1.07,309.42,6.4,32.75,4.85,88.3,48.41,116.15,67.16-.66-4.44.09-6.89,1.51-8.11.32-.27.66-.48,1.04-.64.19-.08.38-.15.58-.2.4-.11.81-.17,1.24-.2.21-.01.43-.01.65,0,.44.01.89.06,1.34.14.22.04.45.08.67.13,3.14.7,6.1,2.5,6.1,2.5,2.55,1.21,5.08,2.42,7.58,3.62,1.87.9,3.71,1.81,5.55,2.71.52.25,1.04.51,1.56.76,43.63,21.5,79.41,43.17,107.6,63.1.06.04.11.08.17.12,1.83,1.3,3.63,2.58,5.4,3.87.11.08.22.16.33.24,1.74,1.27,3.46,2.52,5.14,3.77.08.06.17.13.26.19,7.04,5.24,13.54,10.34,19.48,15.25.21.17.41.34.61.51,1.21,1,2.39,1.99,3.55,2.98.37.31.72.62,1.08.93.98.84,1.95,1.67,2.89,2.5.42.37.84.73,1.26,1.1.87.76,1.72,1.52,2.55,2.27.43.39.87.78,1.29,1.16.8.73,1.59,1.45,2.37,2.17.41.38.83.76,1.23,1.14.8.75,1.58,1.49,2.35,2.22.34.33.69.66,1.03.98,1.09,1.05,2.15,2.08,3.17,3.1,24.4,24.29,42.1,47.89,46.46,61.59,0,0,1.9-19.59,20.42-14.27,18.5,5.31,50.48,42.65,50.55,42.73,8.12,7.21,16.89,15.08,25.92,23.33.1.09.2.18.29.27,1.17,1.07,2.35,2.15,3.53,3.23.12.11.24.22.35.32,3.85,3.54,7.73,7.13,11.63,10.76.11.1.21.2.32.3,1.14,1.06,2.27,2.12,3.41,3.19.26.25.52.49.78.74.99.93,1.99,1.87,2.98,2.81.31.29.61.58.92.87.99.94,1.98,1.87,2.97,2.81.27.26.54.51.81.77,1.18,1.12,2.35,2.24,3.53,3.36.06.06.13.12.19.18,1.28,1.22,2.55,2.45,3.83,3.68.12.11.23.22.35.33,1.09,1.05,2.18,2.11,3.26,3.16.35.34.69.67,1.03,1.01.86.83,1.71,1.66,2.56,2.5.4.4.81.79,1.21,1.19.81.8,1.62,1.59,2.42,2.38.39.39.79.78,1.18,1.17.85.84,1.69,1.68,2.53,2.51.33.33.67.66,1,.99,2.32,2.32,4.6,4.62,6.84,6.91.33.34.66.68,1,1.02.78.79,1.55,1.59,2.31,2.37.4.41.8.83,1.2,1.24.7.72,1.39,1.44,2.08,2.16.41.42.81.84,1.21,1.27.69.72,1.38,1.45,2.06,2.17.37.39.75.79,1.11,1.18.79.84,1.56,1.67,2.33,2.49.24.26.49.52.73.78,1,1.08,1.99,2.16,2.97,3.22.24.26.46.51.7.77.52.58,1.05,1.15,1.56,1.72h0s0-209.81,0-209.81h0c-52.3,75.98-216.6,17.83-295.6-188.76-61.53-160.91,47.39-99.68,47.39-99.68,0,0-59.75-127.71-178.43,7.09-20.54,23.33-27.11,35.93-31.66-4.44-6.45-57.21-54.85-98.31-172.91-85.28,30.5,46.34,90.48,148.16-13,119.78-71.1-19.5-408.72-154.26-194.42-390.09,0,0-434.12,139.51-246.88,488.38,187.24,348.87-35.32,268.38-48.59,159.66-6.89-56.48-27.37-183.89-280.37-142.83,0,0,130.82,14.58,184.6,107.06,53.78,92.48,27.93,212.82,29.05,292.17,3.41,242.33,74.38,414.18,83.91,490.43h81.37c-1.55-35.78-2.21-80.54-2.06-141.48Z"/>
  <path d="M151.59,1154.22s-82.48,118.73-65.84,297.12h133.49,0c-55.1-53.99-87-155-67.65-297.12Z"/>
  <path d="M47.41,855.13c63.84,73.75,103.85,148.61,113.21,224.88,0,0,139.42-134.04-113.21-224.88Z"/>
  <path d="M802,309.1c-103.53-133.76-94.9-220.41-94.9-220.41-107.48,110.4,34.37,172.76,94.9,220.41Z"/>
  <path d="M1271.09,513.04c79.29,7.89,93.77-11.45,165.89,46.81-43.85-107.38-163.81-15.44-141.94-161.3,0,0-103.24,106.6-23.95,114.49Z"/>
  <path d="M1077.39,696.63c.34,1.74.79,3.36,1.06,5.17.11-.56-.31-2.4-1.06-5.17Z"/>
  <path d="M1318.25,843.98c.3,6.85,1.14,15,2.09,22.9,0-.03,0-.04-.02-.07,0,0-21.85-27.98-38.43-50.82-5.55-7.64-10.48-14.68-13.82-19.93-.12-.18-.27-.4-.38-.58,0,0,.18.3.25.42-18.72-24.68-34.29-36.4-44.42-43.6-47.35-33.69-95.16-63.72-142.54-88.98-1.14-.61-2.28-1.29-3.42-1.89-5.62-2.97-6.94,1.16-6.4,7.76.15,1.82.46,3.84.85,5.93-.02-.08-.04-.16-.07-.23l-50.41-34.89-2.28-1.58s-3.26-2.15-3.05-1.97c-17.5-11.59-33.02-18.44-40.22-21.14-108.62-40.69-211.1-49.38-295.66-9.6-93.48,43.98-155.28,142.59-192.4,269.39-3.31,11.31-14.02,54.22,2.15,116.78.25.98.34,1.41.34,1.58-3.41-9.02-6.21-18.05-9.29-25.46-.03-.08-.06-.18-.09-.25-5.64-13.5-7.8-16.24-7.8-16.24,0,0-.06-.01-.07-.02-1.18-1.83-2.19-2.77-2.92-2.44,0,0,0,0,0,0-.4.19-.75.64-.96,1.69-.1.49-.16,1.02-.26,1.51-2.96,14.59-5.24,29.81-7.68,44.89-11.02,88.17-22.94,264.49-15.98,289.34,10.2,36.43,11.68,47.79,18.65,67.81.85,2.23,1.57,4.29,2.48,6.61,4.1,9.38,18.5,28.01,50.1,67.08,0,0-.37-.23-.97-.62-22.96-13.82-33.94-30.31-33.94-30.31t0,0c-11.54-13.6-18.35-21.02-22.53-25.3-5.22-5.34-6.25-5.65-6.25-5.65,0,0-.01,0-.02,0-4.02-3.44-6.78-4.27-6.85-.03,0,.27-.09.38-.07.69,1.64,28.29,3.85,56.54,6.55,84.6h853.81c80.08,0,145-64.92,145-145h0v-362.43h0c-41.08-39.93-83.93-78.54-127.8-114.74-4.76-3.93-5.77,3.61-5.29,14.81ZM1078.45,701.8c-.27-1.81-.72-3.43-1.06-5.17.75,2.77,1.17,4.61,1.06,5.17ZM559.84,1169.2c13.58-114.28,28.23-63.58,28.23-63.58,0,0-5.52-270.79,47.41-369.84,21.81-40.81,140.13-71.3,140.13-71.3,0,0-163.67,68.79-136.57,314.66,18.25,165.57-31.34,138.37-10.77,210.79,0,0-27.46-46.4-31.09-36.11-1.19,3.37-20.26,54.15-25.21,99.43-3.36,30.73-11.23,76.07-14.41-5.82-1.13-29.15-.34-56.15,2.28-78.23Z"/>
</svg>
